HIERARCHY
ROOT hip
{
  OFFSET 0 0 0
  CHANNELS 6 Xposition Yposition Zposition Zrotation Yrotation Xrotation
  JOINT abdomen
  {
    OFFSET 0 20.6881 -0.73152
    CHANNELS 3 Zrotation Xrotation Yrotation
    JOINT chest
    {
      OFFSET 0 11.7043 -0.48768
      CHANNELS 3 Zrotation Xrotation Yrotation
      JOINT neck
      {
        OFFSET 0 22.1894 -2.19456
        CHANNELS 3 Zrotation Xrotation Yrotation
        JOINT head
        {
          OFFSET -0.24384 7.07133 1.2192
          CHANNELS 3 Zrotation Xrotation Yrotation
          JOINT leftEye
          {
            OFFSET 4.14528 8.04674 8.04672
            CHANNELS 3 Zrotation Xrotation Yrotation
            End Site
            {
              OFFSET 1 0 0
            }
          }
          JOINT rightEye
          {
            OFFSET -3.6576 8.04674 8.04672
            CHANNELS 3 Zrotation Xrotation Yrotation
            End Site
            {
              OFFSET 1 0 0
            }
          }
        }
      }
      JOINT rCollar
      {
        OFFSET -2.68224 19.2634 -4.8768
        CHANNELS 3 Zrotation Xrotation Yrotation
        JOINT rShldr
        {
          OFFSET -8.77824 -1.95073 1.46304
          CHANNELS 3 Zrotation Xrotation Yrotation
          JOINT rForeArm
          {
            OFFSET -28.1742 -1.7115 0.48768
            CHANNELS 3 Zrotation Xrotation Yrotation
            JOINT rHand
            {
              OFFSET -22.5879 0.773209 7.07136
              CHANNELS 3 Zrotation Xrotation Yrotation
              JOINT rThumb1
              {
                OFFSET -1.2192 -0.487915 3.41376
                CHANNELS 3 Zrotation Xrotation Yrotation
                JOINT rThumb2
                {
                  OFFSET -3.37035 -0.52449 3.41376
                  CHANNELS 3 Zrotation Xrotation Yrotation
                  End Site
                  {
                    OFFSET -1.78271 -1.18214 1.43049
                  }
                }
              }
              JOINT rIndex1
              {
                OFFSET -7.75947 0.938293 5.60832
                CHANNELS 3 Zrotation Xrotation Yrotation
                JOINT rIndex2
                {
                  OFFSET -2.54057 -0.884171 1.56538
                  CHANNELS 3 Zrotation Xrotation Yrotation
                  End Site
                  {
                    OFFSET -1.62519 -0.234802 1.16502
                  }
                }
              }
              JOINT rMid1
              {
                OFFSET -8.24714 1.18213 3.41376
                CHANNELS 3 Zrotation Xrotation Yrotation
                JOINT rMid2
                {
                  OFFSET -3.10165 -0.590103 1.0647
                  CHANNELS 3 Zrotation Xrotation Yrotation
                  End Site
                  {
                    OFFSET -2.48547 -0.328903 0.83742
                  }
                }
              }
              JOINT rRing1
              {
                OFFSET -8.82822 0.546677 1.51678
                CHANNELS 3 Zrotation Xrotation Yrotation
                JOINT rRing2
                {
                  OFFSET -2.60934 -0.819778 -0.0198488
                  CHANNELS 3 Zrotation Xrotation Yrotation
                  End Site
                  {
                    OFFSET -2.33842 -0.294052 0.168128
                  }
                }
              }
              JOINT rPinky1
              {
                OFFSET -8.27202 -0.0477905 -0.4584
                CHANNELS 3 Zrotation Xrotation Yrotation
                JOINT rPinky2
                {
                  OFFSET -1.82734 -0.647385 -0.700984
                  CHANNELS 3 Zrotation Xrotation Yrotation
                  End Site
                  {
                    OFFSET -1.69225 -0.51767 -0.607171
                  }
                }
              }
            }
          }
        }
      }
      JOINT lCollar
      {
        OFFSET 2.68224 19.2634 -4.8768
        CHANNELS 3 Zrotation Xrotation Yrotation
        JOINT lShldr
        {
          OFFSET 8.77824 -1.95073 1.46304
          CHANNELS 3 Zrotation Xrotation Yrotation
          JOINT lForeArm
          {
            OFFSET 28.1742 -1.7115 0.48768
            CHANNELS 3 Zrotation Xrotation Yrotation
            JOINT lHand
            {
              OFFSET 22.5879 0.773209 7.07136
              CHANNELS 3 Zrotation Xrotation Yrotation
              JOINT lThumb1
              {
                OFFSET 1.2192 -0.487915 3.41376
                CHANNELS 3 Zrotation Xrotation Yrotation
                JOINT lThumb2
                {
                  OFFSET 3.37035 -0.52449 3.41376
                  CHANNELS 3 Zrotation Xrotation Yrotation
                  End Site
                  {
                    OFFSET 1.78271 -1.18214 1.43049
                  }
                }
              }
              JOINT lIndex1
              {
                OFFSET 7.75947 0.938293 5.60832
                CHANNELS 3 Zrotation Xrotation Yrotation
                JOINT lIndex2
                {
                  OFFSET 2.54057 -0.884171 1.56538
                  CHANNELS 3 Zrotation Xrotation Yrotation
                  End Site
                  {
                    OFFSET 1.62519 -0.234802 1.16502
                  }
                }
              }
              JOINT lMid1
              {
                OFFSET 8.24714 1.18213 3.41376
                CHANNELS 3 Zrotation Xrotation Yrotation
                JOINT lMid2
                {
                  OFFSET 3.10165 -0.590103 1.0647
                  CHANNELS 3 Zrotation Xrotation Yrotation
                  End Site
                  {
                    OFFSET 2.48547 -0.328903 0.83742
                  }
                }
              }
              JOINT lRing1
              {
                OFFSET 8.82822 0.546677 1.51678
                CHANNELS 3 Zrotation Xrotation Yrotation
                JOINT lRing2
                {
                  OFFSET 2.60934 -0.819778 -0.0198488
                  CHANNELS 3 Zrotation Xrotation Yrotation
                  End Site
                  {
                    OFFSET 2.33842 -0.294052 0.168128
                  }
                }
              }
              JOINT lPinky1
              {
                OFFSET 8.27202 -0.0477905 -0.4584
                CHANNELS 3 Zrotation Xrotation Yrotation
                JOINT lPinky2
                {
                  OFFSET 1.82734 -0.647385 -0.700984
                  CHANNELS 3 Zrotation Xrotation Yrotation
                  End Site
                  {
                    OFFSET 1.69225 -0.51767 -0.607171
                  }
                }
              }
            }
          }
        }
      }
    }
  }
  JOINT rButtock
  {
    OFFSET -8.77824 4.35084 1.2192
    CHANNELS 3 Zrotation Xrotation Yrotation
    JOINT rThigh
    {
      OFFSET 0 -1.70687 -2.19456
      CHANNELS 3 Zrotation Xrotation Yrotation
      JOINT rShin
      {
        OFFSET 0 -36.8199 0.73152
        CHANNELS 3 Zrotation Xrotation Yrotation
        JOINT rFoot
        {
          OFFSET 0.73152 -45.1104 -5.12064
          CHANNELS 3 Zrotation Xrotation Yrotation
          End Site
          {
            OFFSET -1.1221 -3.69964 12.103
          }
        }
      }
    }
  }
  JOINT lButtock
  {
    OFFSET 8.77824 4.35084 1.2192
    CHANNELS 3 Zrotation Xrotation Yrotation
    JOINT lThigh
    {
      OFFSET 0 -1.70687 -2.19456
      CHANNELS 3 Zrotation Xrotation Yrotation
      JOINT lShin
      {
        OFFSET 0 -36.8199 0.73152
        CHANNELS 3 Zrotation Xrotation Yrotation
        JOINT lFoot
        {
          OFFSET -0.73152 -45.1104 -5.12064
          CHANNELS 3 Zrotation Xrotation Yrotation
          End Site
          {
            OFFSET 1.1221 -3.69964 12.103
          }
        }
      }
    }
  }
}
MOTION
Frames:	4
Frame Time:	0.03333
0.011043348670852804 62.309152024250025 0.11254065342832986 -2.599421501159668 -3.128638982772827 7.020993709564209 -2.7229537963867188 14.12082290649414 3.820948600769043 2.899813175201416 -9.411182403564453 1.4551193714141846 -5.192586421966553 14.566523551940918 -3.5902657508850098 9.172013282775879 -22.251676559448242 -5.212244510650635 -0.029703311622142792 0.005511792376637459 -0.019222509115934372 0.026283394545316696 0.027117272838950157 0.042317770421504974 0.21590526401996613 0.01773723214864731 -0.005828732158988714 46.354652404785156 39.83351135253906 17.57329750061035 -25.71305274963379 -26.017414093017578 68.01129150390625 -1.6119987964630127 -9.639802932739258 -1.6906836032867432 -0.02359565533697605 -0.026428334414958954 -0.0014014597982168198 0.031559281051158905 -0.04140900820493698 0.020529037341475487 -0.047042883932590485 0.040334608405828476 -0.01312911044806242 7.818239212036133 5.474244594573975 0.39461109042167664 -0.06781458109617233 0.25453102588653564 -0.09074660390615463 2.967273235321045 0.9308050274848938 0.018108591437339783 -0.003459018422290683 -0.024559851735830307 0.008493885397911072 10.24482250213623 0.8236039876937866 -0.07397352904081345 0.04838262125849724 0.04379451647400856 0.05560918524861336 2.244374990463257 -0.7545018196105957 -0.31963205337524414 0.07618547230958939 -0.010428941808640957 0.035377636551856995 -55.364994049072266 39.6506462097168 -25.043811798095703 24.901227951049805 -23.263147354125977 -64.61016082763672 1.9950928688049316 -14.120380401611328 2.133009672164917 0.027358250692486763 0.007418646011501551 -0.15422354638576508 -0.09023100137710571 0.01136743277311325 0.04586746543645859 -0.006108212284743786 -0.05312175303697586 0.13412296772003174 -7.798952102661133 5.334680557250977 -0.3343028724193573 0.02820938639342785 0.0010808405932039022 -0.004710161592811346 -2.975832223892212 1.03848397731781 -0.1708550900220871 -0.023280438035726547 0.0350816585123539 -0.010719935409724712 -10.308981895446777 0.6815661191940308 -0.06570563465356827 -0.054337259382009506 -0.038541506975889206 -0.1149011179804802 -2.2762649059295654 -0.7660742402076721 0.19296328723430634 -0.024138281121850014 -0.051685087382793427 0.058561086654663086 -24.50166130065918 -43.673789978027344 -18.68406105041504 -1.3606001138687134 65.56014251708984 2.839522123336792 -4.42689323425293 -11.966534614562988 -9.346512794494629 -0.008761517703533173 -0.02798623777925968 -0.0064030797220766544 29.627164840698242 -45.53740692138672 21.518573760986328 1.6958011388778687 65.86039733886719 -2.8070242404937744 4.824169158935547 -12.422019958496094 13.22516918182373
0.014975029672694285 62.51082701987299 0.2285102219025648 -3.1964704990386963 0.6663253307342529 10.479690551757812 -2.6810407638549805 14.571149826049805 3.824291229248047 2.605658769607544 -9.799881935119629 1.3151803016662598 -4.802302837371826 14.414288520812988 -3.5838193893432617 8.953872680664062 -21.820585250854492 -5.44200325012207 0.06583991646766663 -0.1352972537279129 -0.11967552453279495 0.10828232765197754 -0.028728947043418884 -0.043162450194358826 -0.15585580468177795 0.14538417756557465 0.16417425870895386 46.9307975769043 39.69281005859375 17.82246971130371 -25.767812728881836 -26.50887107849121 68.83502960205078 -1.5872136354446411 -11.460542678833008 -1.5719878673553467 0.16270630061626434 -0.12954320013523102 0.1486356556415558 0.059486858546733856 -0.11747600883245468 0.0002936932723969221 0.056745823472738266 0.14313744008541107 -0.05058549717068672 7.814852714538574 5.598272323608398 0.4303041100502014 -0.020669719204306602 0.014439156278967857 -0.1440717726945877 2.904524087905884 1.017288088798523 0.20645011961460114 0.155104860663414 0.007020522840321064 0.04442247375845909 10.266416549682617 0.6418769359588623 0.08529543876647949 0.15715956687927246 0.1049424260854721 0.12119849771261215 2.209906578063965 -0.8605960011482239 -0.2195160835981369 0.1666833460330963 -0.08735433220863342 9.969703387469053e-05 -54.59099578857422 40.61747741699219 -26.450239181518555 24.814905166625977 -23.45025634765625 -65.93101501464844 1.9697368144989014 -14.29591178894043 2.1447665691375732 0.02677726186811924 -0.1630212664604187 0.07309854030609131 0.2209290862083435 0.08166968077421188 -0.13989518582820892 -0.14947955310344696 0.07960175722837448 -0.14332307875156403 -7.869460105895996 5.407238483428955 -0.3821212649345398 0.14948390424251556 0.07134347409009933 -0.028723599389195442 -2.905266523361206 0.8492273092269897 -0.22918207943439484 0.16242928802967072 -0.0023473864421248436 -0.040641553699970245 -10.113883972167969 0.9104345440864563 -0.1654367446899414 0.05592216178774834 -0.11252584308385849 -0.17346005141735077 -2.2606630325317383 -0.6401798129081726 0.21497373282909393 0.041069574654102325 -0.1773330718278885 0.09772756695747375 -25.384185791015625 -41.19127655029297 -19.22902488708496 -1.4614603519439697 64.21678161621094 2.3691964149475098 -4.65375280380249 -11.640680313110352 -9.689311027526855 -0.19365942478179932 -0.04488423094153404 0.045007795095443726 30.714570999145508 -42.28924560546875 21.150835037231445 1.7058405876159668 67.11839294433594 -2.729764223098755 5.180429935455322 -12.095399856567383 13.125295639038086
-0.0414097827513477 61.495294003507986 0.6715478810945031 -2.878281354904175 9.74367904663086 7.607114315032959 -1.659233808517456 16.917343139648438 4.176591396331787 2.9314591884613037 -10.563688278198242 1.5806673765182495 -5.649886608123779 15.062305450439453 -5.241847038269043 8.674102783203125 -27.30274772644043 -8.173506736755371 -0.054478492587804794 -0.13794176280498505 -0.039740875363349915 -0.11163649708032608 -0.3783795237541199 -0.36749470233917236 0.09154372662305832 0.47157347202301025 -0.008907241746783257 29.47016143798828 28.39007568359375 42.303443908691406 -24.67397117614746 -22.3549861907959 61.399681091308594 -0.8467751145362854 3.7932982444763184 0.9864195585250854 0.07628173381090164 -0.05791895091533661 0.17994722723960876 0.19675178825855255 -0.011418748646974564 -0.18215326964855194 -0.16174422204494476 0.27021825313568115 -0.12593042850494385 7.6627936363220215 5.068120956420898 0.34814193844795227 0.2191600799560547 -0.18409383296966553 0.14777511358261108 3.172013521194458 1.070595383644104 0.033562615513801575 -0.3432569205760956 -0.02764291502535343 -0.025623798370361328 10.474746704101562 0.7893247008323669 -0.05968301743268967 0.4134608507156372 0.1527199149131775 0.1152188777923584 2.007511854171753 -0.9049264788627625 -0.26678189635276794 -0.023595238104462624 0.3553907871246338 -0.301419198513031 -37.25530242919922 52.96927261352539 -49.38500213623047 27.32007598876953 -36.377479553222656 -78.7011947631836 1.899385690689087 -32.69390106201172 5.094765663146973 0.03490590676665306 -0.2742915749549866 -0.3640970289707184 -0.10099092870950699 0.18961800634860992 -0.16120880842208862 3.925693454220891e-05 0.12918733060359955 0.2918781340122223 -8.11701488494873 5.680201530456543 -0.2624325454235077 0.35253196954727173 0.15563032031059265 -0.27357232570648193 -2.650684118270874 1.0631433725357056 -0.44284018874168396 0.19075486063957214 0.18481244146823883 0.20356743037700653 -10.269950866699219 0.8702252507209778 0.09473486989736557 0.16049788892269135 -0.009491706266999245 -0.1788806915283203 -2.480318069458008 -0.49535179138183594 0.5420151948928833 -0.06842059642076492 -0.17888030409812927 -0.031170301139354706 -23.449695587158203 -46.9697265625 -21.812997817993164 -2.5199337005615234 69.69003295898438 3.4135093688964844 -4.710020542144775 -7.8409247398376465 -11.454899787902832 0.033143945038318634 -0.3005075454711914 0.11751732230186462 26.369722366333008 -45.51327133178711 21.08949089050293 4.528426647186279 75.0810317993164 -5.35925817489624 5.192298889160156 -11.525221824645996 15.121206283569336
-0.2897012463464744 60.03420725701554 1.6508404473319502 -4.645559310913086 8.192046165466309 10.986794471740723 1.9351122379302979 17.688087463378906 5.446472644805908 2.956376552581787 -11.35526180267334 2.854325294494629 -4.81296968460083 14.055770874023438 -1.2933200597763062 7.0110955238342285 -31.269317626953125 -2.479963779449463 0.019441036507487297 -0.27752938866615295 0.47804924845695496 -0.0045526218600571156 -0.3835017681121826 -0.8641161918640137 0.2903536856174469 0.7318658828735352 -0.4041435718536377 11.12602424621582 24.38136100769043 65.3176498413086 -25.52458953857422 -22.09410858154297 55.92836380004883 0.08280166983604431 13.506415367126465 2.4535903930664062 0.5914782881736755 0.03462854027748108 -0.07129843533039093 0.628532886505127 -0.2602829337120056 0.12471169233322144 0.47946444153785706 0.3219742774963379 -0.9529815912246704 8.182886123657227 4.799646377563477 0.7180868983268738 -0.044907521456480026 0.04958402365446091 0.7807740569114685 3.85872220993042 1.5881119966506958 0.5582409501075745 -0.04566901922225952 -0.17063359916210175 -0.08267657458782196 10.2470064163208 1.0452311038970947 0.4063766896724701 0.5613983273506165 0.14361481368541718 0.3008677065372467 1.7499659061431885 -0.8898409008979797 0.09271010011434555 0.1062319427728653 0.33472469449043274 -0.6982070207595825 3.538862943649292 30.047330856323242 -98.953369140625 29.66292953491211 -45.26939010620117 -85.76181030273438 1.1223660707473755 -33.64887237548828 5.137483596801758 0.2818126678466797 -1.0319323539733887 -0.2919970154762268 0.03343162313103676 -0.2638839781284332 -0.09009401500225067 -0.5263257622718811 0.2086929827928543 -0.18312020599842072 -8.827068328857422 5.785487174987793 -0.021300816908478737 0.40068742632865906 0.21920965611934662 -0.6131858825683594 -3.1711814403533936 1.2929872274398804 -0.4040870666503906 0.16383221745491028 0.357583224773407 0.05629070848226547 -10.593241691589355 1.0168344974517822 0.33765527606010437 0.17252551019191742 -0.6094768643379211 0.025158273056149483 -2.032883405685425 -0.8682065606117249 1.1184309720993042 -0.17261502146720886 -0.2939814329147339 -0.612116277217865 -15.52682113647461 -46.48025131225586 -24.137514114379883 -3.5013415813446045 75.36675262451172 5.049224376678467 -8.22448444366455 -9.772467613220215 -21.695781707763672 -0.21627271175384521 -0.9479858875274658 -0.11673382669687271 31.880186080932617 -59.11648178100586 34.020355224609375 116.04559326171875 87.8302001953125 -116.90917205810547 4.604033470153809 -8.397176742553711 14.325848579406738
